<svg width="96" height="96" viewBox="0 0 96 96" fill="none" xmlns="http://www.w3.org/2000/svg">
<path d="M0 15C0 6.71573 6.71573 0 15 0H81C89.2843 0 96 6.71573 96 15V81C96 89.2843 89.2843 96 81 96H15C6.71573 96 0 89.2843 0 81V15Z" fill="#13152D"/>
<path fill-rule="evenodd" clip-rule="evenodd" d="M30 30H66V66H30V30ZM36 36V60H60V36H36Z" fill="#1A8CFF"/>
<path fill-rule="evenodd" clip-rule="evenodd" d="M18 18H78V78H18V18ZM24 24V72H72V24H24Z" fill="#00E500"/>
<path fill-rule="evenodd" clip-rule="evenodd" d="M6 15C6 10.0294 10.0294 6 15 6H81C85.9706 6 90 10.0294 90 15V81C90 85.9706 85.9706 90 81 90H15C10.0294 90 6 85.9706 6 81V15ZM15 12C13.3431 12 12 13.3431 12 15V81C12 82.6569 13.3431 84 15 84H81C82.6569 84 84 82.6569 84 81V15C84 13.3431 82.6569 12 81 12H15Z" fill="#FF6633"/>
</svg>
